# xmcd
#
# Track frame offsets:
#	150
#	11352
#	24750
#	38813
#	53070
#	68196
#	84426
#	97596
#	108535
#	123456
#	145178
#	160342
#	169622
#	182212
#	191068
#	202175
#	208685
#	222157
#	235246
#	238438
#	249352
#	262787
#	265088
#	278549
#	280788
#	286128
#	296722
#	297452
#	311690
#
# Disc length: 4270 seconds
#
# Revision: 0
# Processed by: cddbd v1.5.2PL0 Copyright (c) Steve Scherf et al.
# Submitted via: EasyCDDAExtractor 16.0.8.2
#
DISCID=aa10ac1d
DTITLE=Συλλογικός δίσκος - Ελλάς, η χώρα των εμβατηρίων
DYEAR=1990
DGENRE=Εμβατήρια
TTITLE0=Εκφωνητής του ΕΙΡ - Εγερτήριον-Πρωϊνή προσευχή [για έγερση προ της 6.3
TTITLE0=0 π.μ.]
TTITLE1=Χορωδία ΑΣΔΕΝ - Ο Εθνικός Ύμνος της Ελλάδος [1823 υπό Δ.Σολωμού, Ν.Μάν
TTITLE1=τζαρος]
TTITLE2=Χορωδία Αεροπορίας - Η Ελλάδα ποτέ δεν πεθαίνει [Λ.Ρηγίδη-Π.Κολακλίδη-
TTITLE2=Μ.Κωνσταντινίδη]
TTITLE3=Βενιζέλος Ελευθέριος - Διάγγελμα προς τον Ελληνικόν Λαόν [Δεκέμβριος 1
TTITLE3=929]
TTITLE4=Χορωδία κόμματος Φιλελευθέρων - Ο ύμνος του Ελευθερίου Βενιζέλου [1918
TTITLE4=, Σμύρνη, Μαν. Καλομοίρης]
TTITLE5=Χορωδία Πρασινοσκούφηδων - Οι λεβέντες του Παναθηναϊκού [Π.Βέλλα-Κ.Κοφ
TTITLE5=ηνιώτη]
TTITLE6=Χορωδία Βασιλοφρόνων - Του αητού ο γιος [διασκ. Άρη Γκρουεζά]
TTITLE7=Θεοδωράκης Μίκης - Ο ύμνος του Ε.Λ.Α.Σ. [1941-44, Ν. Τσάκωνα-Σ. Μαυροε
TTITLE7=ιδή]
TTITLE8=Χορωδία Γ' Σώματος Στρατού - Πίνδος [γρ. για Δαβάκη, Ελ. Μαυρομάτης-Κω
TTITLE8=νστ. Γκιγκόπουλος]
TTITLE9=Χορωδία της ΕΡΕ - Έρχεται ο Καραμανλής [1964, Άρη Γκρουεζά-Δ. Ιλισσώτη
TTITLE9=]
TTITLE10=Παγιουμτζής Στράτος - Ο ύμνος του Ολυμπιακού [Μ. Γαβριήλ-Στρ. Παγιουμ
TTITLE10=τζή]
TTITLE11=Παπανδρέου Γεώργιος - Ενεδρεύει κίνδυνος δικτατορίας [απόσπ. ομιλίας 
TTITLE11=του 1966]
TTITLE12=Ζαγοραίος Σπύρος - Το τραγούδι του Γ. Παπανδρέου [1964, Θ. Δερβενιώτη
TTITLE12=Κ. Βίρβου]
TTITLE13=Παπαδόπουλος Γεώργιος - Διατί έγινε η επανάστασις [συν. τύπου, Μάϊος 
TTITLE13=1967]
TTITLE14=Παπαθανασίου Λέανδρος - Ο ύμνος του Παναθηναϊκού [επίσ. ύμνος, Γ. Μου
TTITLE14=ζάκη-Γ. Οικονομίδη]
TTITLE15=Δήμας Φώτης - Ο ύμνος της 21ης Απριλίου 1967 [Γ. Κατσαρού-Γ. Οικονομί
TTITLE15=δη]
TTITLE16=Χορωδία - Το τραγούδι του Ανδρέα Παπανδρέου [1964, Γ. Μαριόλα-Α. Αθην
TTITLE16=αίου]
TTITLE17=Χορωδία της ΑΣΔΕΝ - Εμβατήριον του Μακρυγιάννη
TTITLE18=Παπαδόπουλος Γεώργιος - Ο ασθενής εν τω γύψω
TTITLE19=Ορχήστρα Ανυπάνδρων Βιρτουόζων - Το γαμήλιο εμβατήριον
TTITLE20=Χορωδία - Ελλάς Ελλήνων Χριστιανών [Αλ. Κουντουρά-Γ. Καρυδάκη]
TTITLE21=Παπανδρέου Γεώργιος - Όχι στο σύνταγμα της δικτατορίας [τελ. πολιτ. μ
TTITLE21=ήνυμα προ θανάτου]
TTITLE22=Παπαϊωάννου Μίμης-Καζαντζίδης Στέλιος - Ο ύμνος της ομάδας της ΑΕΚ [Σ
TTITLE22=Καζαντζίδη-Χ. Κολοκοτρώνη]
TTITLE23=Παπαδόπουλος Γεώργιος - Στην Ελλάδα προκηρύσσεται προεδρική δημοκρατί
TTITLE23=α
TTITLE24=Καραμανλής Κωνσταντίνος - Ορκομωσία Κωνσταντίνου Καραμανλή [Ιούλιος 1
TTITLE24=974]
TTITLE25=Αναστασιάδης Αλέξανδρος-χορωδία - Ύμνος στον Κωνσταντίνο Καραμανλή [1
TTITLE25=974, Γ. Σπάρτακου]
TTITLE26=Μακάριος πρόεδρος - Η Κύπρος είναι ανεξάρτητη [Φεβρ. 1959]
TTITLE27=Καζαντζίδης Στέλιος - Η Κύπρος είναι Ελληνική [Μπ. Μπακάλη-Κ. Βίρβου]
TTITLE28=Άνευ ερμηνευτού - Βραδυνόν σιωπητήριον
EXTD=
EXTT0=
EXTT1=
EXTT2=
EXTT3=
EXTT4=
EXTT5=
EXTT6=
EXTT7=
EXTT8=
EXTT9=
EXTT10=
EXTT11=
EXTT12=
EXTT13=
EXTT14=
EXTT15=
EXTT16=
EXTT17=
EXTT18=
EXTT19=
EXTT20=
EXTT21=
EXTT22=
EXTT23=
EXTT24=
EXTT25=
EXTT26=
EXTT27=
EXTT28=
PLAYORDER=
